# xmcd
#
# Track frame offsets: 
#        150
#        9480
#        20495
#        32325
#        44465
#        55820
#        68202
#        80052
#        90927
#        100665
#        112725
#        125052
#        135995
#        146197
#        156482
#        166972
#        176405
#        186485
#        196445
#        205137
#        217547
#        229195
#        240962
#        250735
#        260427
#
# Disc length: 3630 seconds
#
# Revision: 5
# Processed by: cddbd v1.5.2PL0 Copyright (c) Steve Scherf et al.
# Submitted via: ExactAudioCopy v1.1
#
DISCID=4c0e2c19
DTITLE=Hawkshaw Hawkins - Hawk 1953-61 - Disc 1
DYEAR=1991
DGENRE=Country
TTITLE0=I'll Trade Yours For Mine (mono)
TTITLE1=A Heap Of Lovin' (mono)
TTITLE2=The Mark 'Round Your Finger (mono)
TTITLE3=The Long Way (mono)
TTITLE4=When You Say Yes (mono)
TTITLE5=I'll Take A Chance With You (mono)
TTITLE6=I'll Never Close My Heart You (mono)
TTITLE7=Why Don't You Leave This Town (mono)
TTITLE8=Rebound (mono)
TTITLE9=One White Horse (mono)
TTITLE10=I Wanna Be Hugged To Death By You (mono)
TTITLE11=Why Didn't I Hear From You (mono)
TTITLE12=Flashing Lights (mono)
TTITLE13=Waitin' For My Baby (Rock, Rock) (mono)
TTITLE14=Ko Ko Mo (I Love You So) (mono)
TTITLE15=Ling Ting Tong (mono)
TTITLE16=Pedro Gonzales Tennessee Lopez (mono)
TTITLE17=How Could Anything So Pretty (Be So Doggone Mean) (mono)
TTITLE18=Car Hoppin' Mama (mono)
TTITLE19=The Love You Steal (mono)
TTITLE20=Oh, How I Cried (mono)
TTITLE21=Borrowing (mono)
TTITLE22=If It Ain't On The Menu (mono)
TTITLE23=I Gotta Have You (mono)
TTITLE24=Standing At The End Of Mend Of The World (mono)
EXTD=
EXTT0=
EXTT1=
EXTT2=
EXTT3=
EXTT4=
EXTT5=
EXTT6=
EXTT7=
EXTT8=
EXTT9=
EXTT10=
EXTT11=
EXTT12=
EXTT13=
EXTT14=
EXTT15=
EXTT16=
EXTT17=
EXTT18=
EXTT19=
EXTT20=
EXTT21=
EXTT22=
EXTT23=
EXTT24=
PLAYORDER=
